<?xml version="1.0" encoding="UTF-8"?>
<svg viewBox="0 0 859.17499 857.17572" xmlns="http://www.w3.org/2000/svg" xmlns:xlink="http://www.w3.org/1999/xlink">
 <defs>
  <filter id="c">
   <feGaussianBlur stdDeviation="11.4948"/>
  </filter>
 </defs>
 <g transform="translate(-8.225 -7.0055)">
  <path d="m36.446 35.218h802.76v800.76h-802.76z" fill="#2b1100" filter="url(#c)" opacity=".7964" stroke="#2b1100" stroke-linecap="round" stroke-linejoin="round" stroke-width="1.2398"/>
  <path d="m23.077 19.62h802.76v800.76h-802.76z" fill="#2b1100" stroke="#2b1100" stroke-linecap="round" stroke-linejoin="round" stroke-width="1.2398"/>
  <path id="a" d="m24.511 20.055h100v100h-100z" fill="#fff" fill-rule="evenodd"/>
  <use transform="translate(700,700)" width="744.09448" height="1052.3622" xlink:href="#a"/>
  <use transform="translate(3.8163e-6 200)" width="744.09448" height="1052.3622" xlink:href="#a"/>
  <use transform="translate(3.8163e-6 400)" width="744.09448" height="1052.3622" xlink:href="#a"/>
  <use transform="translate(3.8163e-6 600)" width="744.09448" height="1052.3622" xlink:href="#a"/>
  <use transform="translate(100,100)" width="744.09448" height="1052.3622" xlink:href="#a"/>
  <use transform="translate(100,300)" width="744.09448" height="1052.3622" xlink:href="#a"/>
  <use transform="translate(100,500)" width="744.09448" height="1052.3622" xlink:href="#a"/>
  <use transform="translate(100,700)" width="744.09448" height="1052.3622" xlink:href="#a"/>
  <use transform="translate(200 -2.7319e-7)" width="744.09448" height="1052.3622" fill="#fff" xlink:href="#a"/>
  <use transform="translate(200,200)" width="744.09448" height="1052.3622" xlink:href="#a"/>
  <use transform="translate(200,400)" width="744.09448" height="1052.3622" xlink:href="#a"/>
  <use transform="translate(200,600)" width="744.09448" height="1052.3622" xlink:href="#a"/>
  <use transform="translate(300,100)" width="744.09448" height="1052.3622" xlink:href="#a"/>
  <use transform="translate(300,300)" width="744.09448" height="1052.3622" xlink:href="#a"/>
  <use transform="translate(300,500)" width="744.09448" height="1052.3622" xlink:href="#a"/>
  <use transform="translate(300,700)" width="744.09448" height="1052.3622" xlink:href="#a"/>
  <use transform="translate(400 -2.7319e-7)" width="744.09448" height="1052.3622" fill="#fff" xlink:href="#a"/>
  <use transform="translate(400,200)" width="744.09448" height="1052.3622" xlink:href="#a"/>
  <use transform="translate(400,400)" width="744.09448" height="1052.3622" xlink:href="#a"/>
  <use transform="translate(400,600)" width="744.09448" height="1052.3622" xlink:href="#a"/>
  <use transform="translate(500,100)" width="744.09448" height="1052.3622" xlink:href="#a"/>
  <use transform="translate(500,300)" width="744.09448" height="1052.3622" xlink:href="#a"/>
  <use transform="translate(500,500)" width="744.09448" height="1052.3622" xlink:href="#a"/>
  <use transform="translate(500,700)" width="744.09448" height="1052.3622" xlink:href="#a"/>
  <use transform="translate(600 -2.7319e-7)" width="744.09448" height="1052.3622" fill="#fff" xlink:href="#a"/>
  <use transform="translate(600,200)" width="744.09448" height="1052.3622" xlink:href="#a"/>
  <use transform="translate(600,400)" width="744.09448" height="1052.3622" xlink:href="#a"/>
  <use transform="translate(600,600)" width="744.09448" height="1052.3622" xlink:href="#a"/>
  <use transform="translate(700,100)" width="744.09448" height="1052.3622" xlink:href="#a"/>
  <use transform="translate(700,300)" width="744.09448" height="1052.3622" xlink:href="#a"/>
  <use transform="translate(700,500)" width="744.09448" height="1052.3622" xlink:href="#a"/>
  <path id="b" d="m124.51 20.055h100v100h-100z" fill="#520" fill-rule="evenodd"/>
  <use transform="translate(-100,100)" width="744.09448" height="1052.3622" xlink:href="#b"/>
  <use transform="translate(-100,300)" width="744.09448" height="1052.3622" xlink:href="#b"/>
  <use transform="translate(-100,500)" width="744.09448" height="1052.3622" xlink:href="#b"/>
  <use transform="translate(-100,700)" width="744.09448" height="1052.3622" xlink:href="#b"/>
  <use transform="translate(3.8163e-6 200)" width="744.09448" height="1052.3622" xlink:href="#b"/>
  <use transform="translate(3.8163e-6 400)" width="744.09448" height="1052.3622" xlink:href="#b"/>
  <use transform="translate(3.8163e-6 600)" width="744.09448" height="1052.3622" xlink:href="#b"/>
  <use transform="translate(100,100)" width="744.09448" height="1052.3622" xlink:href="#b"/>
  <use transform="translate(100,300)" width="744.09448" height="1052.3622" xlink:href="#b"/>
  <use transform="translate(100,500)" width="744.09448" height="1052.3622" xlink:href="#b"/>
  <use transform="translate(100,700)" width="744.09448" height="1052.3622" xlink:href="#b"/>
  <use transform="translate(200 -2.7319e-7)" width="744.09448" height="1052.3622" fill="#520" xlink:href="#b"/>
  <use transform="translate(200,200)" width="744.09448" height="1052.3622" xlink:href="#b"/>
  <use transform="translate(200,400)" width="744.09448" height="1052.3622" xlink:href="#b"/>
  <use transform="translate(200,600)" width="744.09448" height="1052.3622" xlink:href="#b"/>
  <use transform="translate(300,100)" width="744.09448" height="1052.3622" xlink:href="#b"/>
  <use transform="translate(300,300)" width="744.09448" height="1052.3622" xlink:href="#b"/>
  <use transform="translate(300,500)" width="744.09448" height="1052.3622" xlink:href="#b"/>
  <use transform="translate(300,700)" width="744.09448" height="1052.3622" xlink:href="#b"/>
  <use transform="translate(400 -2.7319e-7)" width="744.09448" height="1052.3622" fill="#520" xlink:href="#b"/>
  <use transform="translate(400,200)" width="744.09448" height="1052.3622" xlink:href="#b"/>
  <use transform="translate(400,400)" width="744.09448" height="1052.3622" xlink:href="#b"/>
  <use transform="translate(400,600)" width="744.09448" height="1052.3622" xlink:href="#b"/>
  <use transform="translate(500,100)" width="744.09448" height="1052.3622" xlink:href="#b"/>
  <use transform="translate(500,300)" width="744.09448" height="1052.3622" xlink:href="#b"/>
  <use transform="translate(500,500)" width="744.09448" height="1052.3622" xlink:href="#b"/>
  <use transform="translate(500,700)" width="744.09448" height="1052.3622" xlink:href="#b"/>
  <use transform="translate(600 -2.7319e-7)" width="744.09448" height="1052.3622" fill="#520" xlink:href="#b"/>
  <use transform="translate(600,200)" width="744.09448" height="1052.3622" xlink:href="#b"/>
  <use transform="translate(600,400)" width="744.09448" height="1052.3622" xlink:href="#b"/>
  <use transform="translate(600,600)" width="744.09448" height="1052.3622" xlink:href="#b"/>
  <g transform="matrix(.99232 0 0 .97799 -112.85 -674.71)">
   <path d="m844.88 710.26h99.781v101.24h-99.781z" fill="none" stroke="#888" stroke-linecap="round" stroke-linejoin="round"/>
   <path d="m875.14 803.33c0-2.2845 0.024-2.3894 0.7218-3.0866l0.7218-0.7218h8.4034l0.1406-1.0495c0.077-0.5772 0.5852-6.0498 1.1285-12.161s1.0552-11.695 1.1376-12.408l0.1497-1.2964h-8.6995v-12.347l2.4076 2e-3c1.3242 1e-3 2.9909 0.0722 3.7039 0.15786l1.2965 0.15571v2.2497c0.01 3.5304-0.1329 3.3609 2.7417 3.3609h2.4405v-5.6794l1.2964-1e-3c0.713-7.1e-4 2.3798-0.073 3.7039-0.16072l2.4076-0.15942v6.2477h5.1855v-6.1733h6.9141v12.347h-4.5682c-2.5125 0-4.5687 0.0833-4.5694 0.1852 0 0.50382 2.2505 25.235 2.3628 25.928l0.13 0.80252h8.6583l0.7218 0.7218c0.6972 0.69726 0.7217 0.80211 0.7217 3.0866v2.3648h-39.262v-2.3648z" fill="#fff" stroke="#000"/>
  </g>
  <g transform="matrix(.99221 0 0 .97799 -727.63 -574.38)">
   <path d="m1363.3 710.25h99.781v101.24h-99.781z" fill="none" stroke="#888" stroke-linecap="round" stroke-linejoin="round"/>
   <path d="m1397 803.46c0-2.7378 0.3499-3.5466 1.8149-4.1946l1.0391-0.45964 4.6568-17.113 4.775-17.545c0.105-0.38358-0.089-0.43212-1.7292-0.43212-2.0872 0-3.1487-0.54109-3.1487-1.6051 0-1.0073 1.0737-1.605 2.883-1.605h1.5817l-0.6533-0.67906c-1.1685-1.2146-1.7023-2.7051-1.7023-4.7534 0-2.1425 0.546-3.5805 1.8594-4.8967 1.374-1.377 2.5901-1.8792 4.5506-1.8792s3.1766 0.50219 4.5506 1.8792c2.4765 2.4819 2.5526 7.1601 0.1571 9.6501l-0.6533 0.67906h1.8286c2.0676 0 3.1299 0.54482 3.1299 1.605s-1.0616 1.6051-3.1463 1.6051c-1.3689 0-1.8173 0.0797-1.7373 0.30866 0.059 0.16976 2.3213 8.079 5.0268 17.576l4.9189 17.267 0.8116 0.47958c1.2263 0.72472 1.5343 1.5501 1.5343 4.1119v2.2346h-32.348v-2.2346z" fill="#fff" stroke="#000"/>
  </g>
  <g transform="matrix(.99232 0 0 .97799 -799.79 -675.52)">
   <path d="m1234.3 710.26h99.781v101.24h-99.781z" fill="none" stroke="#888" stroke-linecap="round" stroke-linejoin="round"/>
   <path d="m1267.1 803.46c0-3.0906 0.5299-3.9992 2.5782-4.4208l0.7263-0.14946 4.0148-17.278c2.2081-9.5029 4.0204-17.417 4.0272-17.587 0.01-0.22382-0.568-0.30866-2.0989-0.30866-2.3652 0-3.305-0.33711-3.7671-1.3512-0.39-0.8561-0.3721-1.4873 0.066-2.3351 0.4434-0.85753 0.8573-1.0516 2.6302-1.2335l1.3864-0.14225-3.2869-3.8274-3.287-3.8274-0.013-1.6811-0.013-1.6811 5.1838-6.0972 5.1837-6.0972v-5.8029h-6.4201v-7.161h6.4201v-6.4202h7.1611v6.4202h6.1733v7.161h-6.1733v6.0827l5.0621 5.9571 5.0621 5.9571-0.013 1.6812-0.013 1.6812-3.2868 3.8274-3.2868 3.8274 1.5097 0.14088c1.89 0.17636 2.3017 0.36099 2.7536 1.2349 0.4546 0.87909 0.4572 1.5498 0.01 2.4158-0.5108 0.98773-1.3693 1.2705-3.8576 1.2705-1.2159 0-2.2095 0.0833-2.2079 0.18519s1.8689 8.0182 4.1495 17.592l4.1467 17.407 0.8508 0.14148c2.1459 0.35684 2.7028 1.2673 2.7028 4.4185v2.2346h-34.076v-2.2346z" fill="#fff" stroke="#000"/>
  </g>
  <g transform="matrix(.99232 0 0 .97799 -776.3 -673.93)">
   <path d="m1109.7 710.26h99.781v101.24h-99.781z" fill="none" stroke="#888" stroke-linecap="round" stroke-linejoin="round"/>
   <path d="m1142.5 803.46c0-3.0906 0.5299-3.9992 2.5783-4.4208l0.7262-0.14946 4.0148-17.278c2.2082-9.5029 4.0204-17.417 4.0272-17.587 0.01-0.22382-0.5679-0.30866-2.0989-0.30866-1.3442 0-2.3583-0.12783-2.7916-0.35188-1.7232-0.89112-1.602-3.5888 0.1947-4.333l0.7476-0.30967-2.2176-1.7162c-2.1928-1.6971-2.2175-1.7282-2.2175-2.7968v-1.0806l4.4276-3.4102 4.4277-3.4102-0.9423-0.98773c-2.0813-2.1819-3.532-5.5775-4.0144-9.3968-0.2489-1.971-0.3633-2.3324-0.7385-2.3324-0.2441 0-0.4468-0.0833-0.4503-0.1852s-0.4348-2.7965-0.9583-5.9881-0.9231-5.8356-0.888-5.8756 0.8832 0.98394 1.8843 2.2755 1.876 2.3506 1.9438 2.3535 0.5584-0.98866 1.0898-2.2034 1.0526-2.1554 1.1578-2.0903 0.5518 0.75491 0.9923 1.533 1.0657 1.8407 1.3895 2.3614l0.5886 0.94675 1.3426-1.9289c1.1444-1.6441 1.3208-2.0448 1.1953-2.7138-0.2759-1.4706 1.3264-2.3671 2.3683-1.3251 0.551 0.55094 0.6176 1.036 0.2394 1.7426-0.2112 0.39466-0.017 0.79052 1.1411 2.3296 0.7676 1.0198 1.4715 1.8542 1.5643 1.8542s0.8295-1.1661 1.6369-2.5914 1.5327-2.592 1.6116-2.5928 0.5633 1.0592 1.0764 2.3556l0.9329 2.357 1.7498-2.35c0.9623-1.2925 1.7712-2.3253 1.7974-2.2953s-0.4021 2.7493-0.9518 6.0428c-0.6222 3.7284-1.1054 5.9881-1.2805 5.9881-0.1696 0-0.398 0.92524-0.5757 2.3324-0.4824 3.8193-1.9331 7.2149-4.0144 9.3968l-0.9423 0.98773 4.4277 3.4102 4.4276 3.4102v1.0806c0 1.068-0.026 1.1006-2.2 2.7832l-2.2 1.7026 0.8442 0.30529c1.3844 0.50061 1.9423 2.0655 1.2285 3.4459-0.5108 0.98773-1.3693 1.2705-3.8576 1.2705-1.2159 0-2.2094 0.0833-2.2078 0.1852s1.8688 8.0182 4.1494 17.592l4.1467 17.407 0.8508 0.14149c2.1459 0.35684 2.7028 1.2673 2.7028 4.4185v2.2346h-34.076v-2.2346z" fill="#fff" stroke="#000"/>
  </g>
  <g transform="matrix(.99225 0 0 .97799 -859.52 -675.11)">
   <path d="m1495 710.25h99.781v101.24h-99.781z" fill="none" stroke="#888" stroke-linecap="round" stroke-linejoin="round"/>
   <path d="m1544.9444,729.66308c-1.7089.0757-2.9652,1.90425-2.0062,3.6345 .302.54505.2561.66214-.6019,1.52017-3.9444,3.94438-5.1657,16.57399-2.3304,24.1066l.5864,1.55875h-1.4353c-2.4186,0-3.5947,1.51816-2.0912,2.7008 .5035.39601 1.0062.5093 2.2224.5093 .8645,0 1.5654.0833 1.5587.18519s-2.1422,8.01623-4.7534,17.58609l-4.7534,17.40089-.7331.15433c-2.0573.4234-2.585,1.32728-2.585,4.4216v2.23009h1.4739v.0232h16.1739 16.174v-2.23009c-.0001-3.09432-.5354-4.00592-2.5928-4.42931l-.4321-.0849c-.618-1.39406-1.8218-5.46069-5.2628-17.5012-2.7702-9.69358-5.0388-17.65166-5.0388-17.6864s.9319-.0695 2.068-.0695c1.7158,0 2.1758-.0842 2.7162-.5093 .8391-.66003.8391-1.52376 0-2.18379-.5236-.41189-1.0068-.51701-2.4616-.51701h-1.8056l.5864-1.55875c1.3116-3.48466 1.8986-9.29977 1.3813-13.74323-.1659-1.42475-.3802-2.7243-.4708-2.886-.094-.16799-.951,1.12986-1.9985,3.0249-1.0084,1.82413-1.904,3.31041-1.9909,3.31041s-.3998-.43418-.7022-.97229l-.5556-.98 2.2455-3.83515 2.2455-3.83513-.7562-1.59733c-.4191-.87825-1.1219-1.97529-1.5587-2.43845-.7888-.83633-.7908-.85389-.3627-1.55874 .7729-1.27261.3382-2.92314-.9183-3.49561-.4205-.19159-.8403-.27212-1.2347-.25465z" fill="#fff" stroke="#000"/>
  </g>
  <g transform="matrix(.99232 0 0 .97799 -899.05 156.35)">
   <path d="m1234.3 576.26h99.781v101.24h-99.781z" fill="none" stroke="#888" stroke-linecap="round" stroke-linejoin="round"/>
   <path d="m1301.2 669.46c0-3.0906-0.5299-3.9992-2.5782-4.4208l-0.7263-0.14946-4.0148-17.278c-2.2081-9.5029-4.0204-17.417-4.0272-17.587-0.01-0.22382 0.568-0.30866 2.0989-0.30866 2.3652 0 3.305-0.33711 3.7671-1.3512 0.39-0.8561 0.3721-1.4873-0.066-2.3351-0.4434-0.85753-0.8573-1.0516-2.6302-1.2335l-1.3864-0.14225 3.2869-3.8274 3.287-3.8274 0.013-1.6811 0.013-1.6811-5.1838-6.0972-5.1837-6.0972v-5.8029h6.4201v-7.161h-6.4201v-6.4202h-7.161v6.4202h-6.1733v7.161h6.1733v6.0827l-5.0621 5.9571-5.0621 5.9571 0.013 1.6812 0.013 1.6812 3.2868 3.8274 3.2868 3.8274-1.5097 0.14088c-1.89 0.17636-2.3017 0.36099-2.7536 1.2349-0.4546 0.87909-0.4572 1.5498-0.01 2.4158 0.5108 0.98773 1.3693 1.2705 3.8576 1.2705 1.2159 0 2.2095 0.0833 2.2079 0.1852s-1.8689 8.0182-4.1495 17.592l-4.1467 17.407-0.8508 0.14148c-2.1459 0.35684-2.7028 1.2673-2.7028 4.4185v2.2346h34.076v-2.2346z" stroke="#fff"/>
  </g>
  <g transform="matrix(.99232 0 0 .97799 -676.42 156.35)">
   <path d="m1109.7 576.26h99.781v101.24h-99.781z" fill="none" stroke="#888" stroke-linecap="round" stroke-linejoin="round"/>
   <path d="m1142.5 669.46c0-3.0906 0.5299-3.9992 2.5783-4.4208l0.7262-0.14946 4.0148-17.278c2.2082-9.5029 4.0204-17.417 4.0272-17.587 0.01-0.22382-0.5679-0.30866-2.0989-0.30866-1.3442 0-2.3583-0.12782-2.7916-0.35188-1.7232-0.89112-1.602-3.5888 0.1947-4.333l0.7476-0.30967-2.2176-1.7162c-2.1928-1.6971-2.2175-1.7282-2.2175-2.7968v-1.0806l4.4276-3.4102 4.4277-3.4102-0.9423-0.98772c-2.0813-2.1819-3.532-5.5775-4.0144-9.3968-0.2489-1.971-0.3633-2.3324-0.7385-2.3324-0.2441 0-0.4468-0.0833-0.4503-0.1852s-0.4348-2.7965-0.9583-5.9881-0.9231-5.8356-0.888-5.8757 0.8832 0.98394 1.8843 2.2755 1.876 2.3506 1.9438 2.3535 0.5584-0.98866 1.0898-2.2034 1.0526-2.1554 1.1578-2.0903 0.5518 0.75491 0.9923 1.533 1.0657 1.8407 1.3895 2.3614l0.5886 0.94675 1.3426-1.9289c1.1444-1.6441 1.3208-2.0448 1.1953-2.7138-0.2759-1.4706 1.3264-2.3671 2.3683-1.3251 0.551 0.55094 0.6176 1.036 0.2394 1.7426-0.2112 0.39466-0.017 0.79052 1.1411 2.3296 0.7676 1.0198 1.4715 1.8542 1.5643 1.8542s0.8295-1.1661 1.6369-2.5914 1.5327-2.592 1.6116-2.5928 0.5633 1.0592 1.0764 2.3556l0.9329 2.357 1.7498-2.35c0.9623-1.2925 1.7712-2.3253 1.7974-2.2953s-0.4021 2.7493-0.9518 6.0428c-0.6222 3.7284-1.1054 5.9881-1.2805 5.9881-0.1696 0-0.398 0.92524-0.5757 2.3324-0.4824 3.8193-1.9331 7.2149-4.0144 9.3968l-0.9423 0.98772 4.4277 3.4102 4.4276 3.4102v1.0806c0 1.068-0.026 1.1006-2.2 2.7832l-2.2 1.7026 0.8442 0.30528c1.3844 0.50061 1.9423 2.0655 1.2285 3.4459-0.5108 0.98773-1.3693 1.2705-3.8576 1.2705-1.2159 0-2.2094 0.0833-2.2078 0.1852s1.8688 8.0182 4.1494 17.592l4.1467 17.407 0.8508 0.14149c2.1459 0.35684 2.7028 1.2673 2.7028 4.4185v2.2346h-34.076v-2.2346z" stroke="#fff"/>
  </g>
  <g transform="matrix(.99232 0 0 .97795 -727.56 57.549)">
   <path d="m1363.3 576.25h99.781v101.24h-99.781z" fill="none" stroke="#888" stroke-linecap="round" stroke-linejoin="round"/>
   <path d="m1397 669.46c0-2.7378 0.3499-3.5466 1.8149-4.1946l1.0391-0.45964 4.6568-17.113 4.775-17.545c0.105-0.38358-0.089-0.43212-1.7292-0.43212-2.0872 0-3.1487-0.54109-3.1487-1.6051 0-1.0073 1.0737-1.605 2.883-1.605h1.5817l-0.6533-0.67906c-1.1685-1.2146-1.7023-2.7051-1.7023-4.7534 0-2.1425 0.546-3.5805 1.8594-4.8967 1.374-1.377 2.5901-1.8792 4.5506-1.8792s3.1766 0.50219 4.5506 1.8792c2.4765 2.4819 2.5526 7.1601 0.1571 9.6501l-0.6533 0.67906h1.8286c2.0676 0 3.1299 0.54482 3.1299 1.605s-1.0616 1.6051-3.1463 1.6051c-1.3689 0-1.8173 0.0796-1.7373 0.30866 0.059 0.16977 2.3213 8.079 5.0268 17.576l4.9189 17.267 0.8116 0.47958c1.2263 0.72472 1.5343 1.5501 1.5343 4.1119v2.2346h-32.348v-2.2346z" stroke="#fff"/>
  </g>
  <g transform="translate(-869.64 143.05)">
   <path d="m1495 578.5h99.015v99.004h-99.015z" fill="none" stroke="#888" stroke-linecap="round" stroke-linejoin="round" stroke-width=".98508"/>
   <path d="m1544.9214,595.67217c1.7089.0757 2.9652,1.90404 2.0062,3.63411-.302.54498-.2561.66206.6019,1.52 3.9444,3.94396 5.1657,16.57218 2.3304,24.10396l-.5864,1.55858h1.4353c2.4186,0 3.5947,1.51799 2.0912,2.7005-.5035.39597-1.0062.50924-2.2224.50924-.8645,0-1.5654.0833-1.5587.18517s2.1422,8.01536 4.7534,17.58417l4.7534,17.39898 .7331.15432c2.0573.42335 2.585,1.32713 2.585,4.42111v2.22985h-1.4739v.0231h-16.1739-16.174v-2.22984c.0001-3.09398.5354-4.00548 2.5928-4.42883l.4321-.0849c.618-1.3939 1.8218-5.46009 5.2628-17.49928 2.7702-9.69252 5.0388-17.64973 5.0388-17.68446s-.9319-.0695-2.068-.0695c-1.7158,0-2.1758-.0842-2.7162-.50924-.8391-.65996-.8391-1.52359 0-2.18355 .5236-.41184 1.0068-.51695 2.4616-.51695h1.8056l-.5864-1.55858c-1.3116-3.48428-1.8986-9.29875-1.3813-13.74173 .1659-1.42459.3802-2.724.4708-2.88568 .094-.16797.951,1.12974 1.9985,3.02457 1.0084,1.82393 1.904,3.31004 1.9909,3.31004s.3998-.43413.7022-.97218l.5556-.97989-2.2455-3.83472-2.2455-3.83472 .7562-1.59716c.4191-.87815 1.1219-1.97507 1.5587-2.43818 .7888-.83624.7908-.8538.3627-1.55857-.7729-1.27247-.3382-2.92281.9183-3.49524 .4205-.19155.8403-.27209 1.2347-.25461z" stroke="#fff" stroke-width=".99995"/>
  </g>
  <g transform="matrix(.99232 0 0 .97795 -112.64 156.4)">
   <path d="m844.88 576.26h99.781v101.24h-99.781z" fill="none" stroke="#888" stroke-linecap="round" stroke-linejoin="round"/>
   <path d="m875.14 669.33c0-2.2845 0.024-2.3894 0.7218-3.0866l0.7218-0.7218h8.4034l0.1406-1.0495c0.077-0.5772 0.5852-6.0498 1.1285-12.161s1.0552-11.695 1.1376-12.408l0.1497-1.2964h-8.6995v-12.347l2.4076 2e-3c1.3242 1e-3 2.9909 0.0722 3.7039 0.15786l1.2965 0.15571v2.2497c0.01 3.5304-0.1329 3.3609 2.7417 3.3609h2.4405v-5.6794l1.2964-1e-3c0.713-7.1e-4 2.3798-0.073 3.7039-0.16071l2.4076-0.15943v6.2477h5.1855v-6.1733h6.9141v12.347h-4.5682c-2.5125 0-4.5687 0.0833-4.5694 0.1852 0 0.50382 2.2505 25.235 2.3628 25.928l0.13 0.80252h8.6583l0.7218 0.7218c0.6972 0.69726 0.7217 0.80211 0.7217 3.0866v2.3648h-39.262v-2.3648z" stroke="#fff"/>
  </g>
  <g transform="matrix(.99232 0 0 .97788 -443.76 156.43)">
   <path d="m976.65 576.26h99.781v101.24h-99.781z" fill="none" stroke="#888" stroke-linecap="round" stroke-linejoin="round"/>
   <path d="m1002 669.46c0-2.467 0.3482-3.6256 1.433-4.7675 1.2975-1.366 1.8355-1.5115 6.0825-1.6447l3.9349-0.12346 6.2123-19.137c3.6767-11.327 6.102-19.164 5.9422-19.204-0.2144-0.0533-14.672 3.3206-16.22 3.785-0.3488 0.1047-0.4121-0.56639-0.5632-5.9696-0.093-3.3482-0.1232-6.1345-0.066-6.1919 0.1235-0.12349 14.107-3.7794 14.456-3.7794 0.1348 0 0.1794 0.36995 0.1021 0.84612-0.1115 0.6869-0.018 0.96569 0.4982 1.4816 0.8016 0.80161 1.738 0.81251 2.5211 0.0294 0.7652-0.7652 0.774-1.7178 0.023-2.469l-0.5834-0.58339 2.8675-0.75489c7.1827-1.8909 7.1885-1.8918 9.05-1.4324 2.9683 0.7325 5.2253 2.6418 5.9434 5.0278 0.2839 0.94325 0.3441 5.2873 0.3441 24.81v23.666l1.5433 5e-3c1.7701 6e-3 3.1752 0.55359 4.1847 1.6302 1.0871 1.1592 1.433 2.3123 1.433 4.7766v2.2303h-49.139v-2.2303z" stroke="#fff"/>
   <path transform="matrix(1.0291 0 0 .96089 -22.905 28.653)" d="m1020.4 608.75c0 1.4102-1.0596 2.5534-2.3666 2.5534s-2.3665-1.1432-2.3665-2.5534 1.0595-2.5534 2.3665-2.5534 2.3666 1.1432 2.3666 2.5534z" fill="#fff" stroke="#000" stroke-linecap="round" stroke-linejoin="round"/>
  </g>
  <g transform="matrix(.99225 0 0 .97799 -444.1 -676.34)">
   <path d="m976.65 710.26h99.781v101.24h-99.781z" fill="none" stroke="#888" stroke-linecap="round" stroke-linejoin="round"/>
   <path d="m1051.1097,803.46467c0-2.46701-.3482-3.62556-1.433-4.76754-1.2975-1.36599-1.8355-1.51148-6.0825-1.64473l-3.9349-.12346-6.2123-19.13712c-3.6767-11.32655-6.102-19.1645-5.9422-19.20421 .2144-.0533 14.6725,3.32066 16.2196,3.785 .3488.1047.4121-.56639.5632-5.96964 .093-3.34818.1232-6.13453.066-6.19189-.1235-.1235-14.1073-3.77945-14.4562-3.77945-.1348,0-.1794.36995-.1021.84612 .1115.6869.018.96569-.4982,1.48158-.8016.80161-1.738.81251-2.5211.0294-.7652-.7652-.774-1.7178-.023-2.46905l.5834-.58338-2.8675-.75489c-7.1827-1.8909-7.1885-1.89181-9.05-1.43245-2.9683.73249-5.2253,2.64183-5.9434,5.02781-.2839.94326-.3441,5.2873-.3441,24.80957v23.66609l-1.5433.005c-1.7701.006-3.1752.55359-4.1847,1.63024-1.0871,1.15924-1.433,2.3123-1.433,4.77662v2.2303h24.5696 24.5696v-2.2303z" fill="#fff" stroke="#000"/>
   <path transform="translate(-1.121 2.6157)" d="m1030.9 744.76c0 1.0662-0.7807 1.9306-1.7438 1.9306s-1.7437-0.86436-1.7437-1.9306 0.7807-1.9306 1.7437-1.9306 1.7438 0.86436 1.7438 1.9306z" fill="#fff" stroke="#000" stroke-linecap="round" stroke-linejoin="round"/>
  </g>
 </g>
</svg>
